<?xml version="1.0" encoding="UTF-8" standalone="no"?>
<!DOCTYPE svg PUBLIC "-//W3C//DTD SVG 1.1//EN"
 "http://www.w3.org/Graphics/SVG/1.1/DTD/svg11.dtd">
<!-- Generated by graphviz version 2.47.0 (20210316.0004)
 -->
<!-- Title: dependencies Pages: 1 -->
<svg width="5520pt" height="284pt"
 viewBox="0.00 0.00 5520.00 284.00" xmlns="http://www.w3.org/2000/svg" xmlns:xlink="http://www.w3.org/1999/xlink">
<g id="graph0" class="graph" transform="scale(1 1) rotate(0) translate(4 280)">
<title>dependencies</title>
<polygon fill="white" stroke="transparent" points="-4,4 -4,-280 5516,-280 5516,4 -4,4"/>
<text text-anchor="start" x="2735.01" y="-42.4" font-family="Times-12" font-weight="bold" font-size="14.00">Legend</text>
<polygon fill="#ffffb3" stroke="transparent" points="2522,-10 2522,-30 2542,-30 2542,-10 2522,-10"/>
<text text-anchor="start" x="2545.63" y="-15.4" font-family="Times-12" font-size="14.00"> &#160;Declarations</text>
<polygon fill="#8dd3c7" stroke="transparent" points="2635,-10 2635,-30 2655,-30 2655,-10 2635,-10"/>
<text text-anchor="start" x="2658.73" y="-15.4" font-family="Times-12" font-size="14.00"> &#160;Module</text>
<polygon fill="#80b1d3" stroke="transparent" points="2721,-10 2721,-30 2741,-30 2741,-10 2721,-10"/>
<text text-anchor="start" x="2744.78" y="-15.4" font-family="Times-12" font-size="14.00"> &#160;Bootstrap</text>
<polygon fill="#fdb462" stroke="transparent" points="2818,-10 2818,-30 2838,-30 2838,-10 2818,-10"/>
<text text-anchor="start" x="2841.67" y="-15.4" font-family="Times-12" font-size="14.00"> &#160;Providers</text>
<polygon fill="#fb8072" stroke="transparent" points="2914,-10 2914,-30 2934,-30 2934,-10 2914,-10"/>
<text text-anchor="start" x="2937.73" y="-15.4" font-family="Times-12" font-size="14.00"> &#160;Exports</text>
<g id="clust1" class="cluster">
<title>cluster_AppModule</title>
<polygon fill="none" stroke="black" stroke-dasharray="1,5" points="8,-70 8,-268 5504,-268 5504,-70 8,-70"/>
</g>
<g id="clust29" class="cluster">
<title>cluster_AppModule_imports</title>
<polygon fill="none" stroke="black" points="5227,-78 5227,-130 5496,-130 5496,-78 5227,-78"/>
</g>
<g id="clust32" class="cluster">
<title>cluster_AppModule_providers</title>
<polygon fill="none" stroke="black" points="4868,-78 4868,-130 5219,-130 5219,-78 4868,-78"/>
</g>
<g id="clust31" class="cluster">
<title>cluster_AppModule_bootstrap</title>
<polygon fill="none" stroke="black" points="2747,-208 2747,-260 2871,-260 2871,-208 2747,-208"/>
</g>
<g id="clust2" class="cluster">
<title>cluster_AppModule_declarations</title>
<polygon fill="none" stroke="black" points="16,-78 16,-130 4860,-130 4860,-78 16,-78"/>
</g>
<!-- AlertCreationComponent -->
<g id="node1" class="node">
<title>AlertCreationComponent</title>
<polygon fill="#ffffb3" stroke="black" points="4852.3,-122 4693.7,-122 4693.7,-86 4852.3,-86 4852.3,-122"/>
<text text-anchor="middle" x="4773" y="-99.8" font-family="Times,serif" font-size="14.00">AlertCreationComponent</text>
</g>
<!-- AppModule -->
<g id="node27" class="node">
<title>AppModule</title>
<polygon fill="#8dd3c7" stroke="black" points="2850.66,-187 2847.66,-191 2826.66,-191 2823.66,-187 2767.34,-187 2767.34,-151 2850.66,-151 2850.66,-187"/>
<text text-anchor="middle" x="2809" y="-164.8" font-family="Times,serif" font-size="14.00">AppModule</text>
</g>
<!-- AlertCreationComponent&#45;&gt;AppModule -->
<g id="edge1" class="edge">
<title>AlertCreationComponent&#45;&gt;AppModule</title>
<path fill="none" stroke="black" d="M4773,-122.28C4773,-143.32 4773,-175 4773,-175 4773,-175 2860.93,-175 2860.93,-175"/>
<polygon fill="black" stroke="black" points="2860.93,-171.5 2850.93,-175 2860.93,-178.5 2860.93,-171.5"/>
</g>
<!-- AlertOverviewComponent -->
<g id="node2" class="node">
<title>AlertOverviewComponent</title>
<polygon fill="#ffffb3" stroke="black" points="4675.79,-122 4510.21,-122 4510.21,-86 4675.79,-86 4675.79,-122"/>
<text text-anchor="middle" x="4593" y="-99.8" font-family="Times,serif" font-size="14.00">AlertOverviewComponent</text>
</g>
<!-- AlertOverviewComponent&#45;&gt;AppModule -->
<g id="edge2" class="edge">
<title>AlertOverviewComponent&#45;&gt;AppModule</title>
<path fill="none" stroke="black" d="M4593,-122.13C4593,-142.57 4593,-173 4593,-173 4593,-173 2860.9,-173 2860.9,-173"/>
<polygon fill="black" stroke="black" points="2860.9,-169.5 2850.9,-173 2860.9,-176.5 2860.9,-169.5"/>
</g>
<!-- AlertsManagerComponent -->
<g id="node3" class="node">
<title>AlertsManagerComponent</title>
<polygon fill="#ffffb3" stroke="black" points="4492.79,-122 4327.21,-122 4327.21,-86 4492.79,-86 4492.79,-122"/>
<text text-anchor="middle" x="4410" y="-99.8" font-family="Times,serif" font-size="14.00">AlertsManagerComponent</text>
</g>
<!-- AlertsManagerComponent&#45;&gt;AppModule -->
<g id="edge3" class="edge">
<title>AlertsManagerComponent&#45;&gt;AppModule</title>
<path fill="none" stroke="black" d="M4410,-122.31C4410,-142.15 4410,-171 4410,-171 4410,-171 2861,-171 2861,-171"/>
<polygon fill="black" stroke="black" points="2861,-167.5 2851,-171 2861,-174.5 2861,-167.5"/>
</g>
<!-- AppComponent -->
<g id="node4" class="node">
<title>AppComponent</title>
<polygon fill="#ffffb3" stroke="black" points="4309.94,-122 4204.06,-122 4204.06,-86 4309.94,-86 4309.94,-122"/>
<text text-anchor="middle" x="4257" y="-99.8" font-family="Times,serif" font-size="14.00">AppComponent</text>
</g>
<!-- AppComponent&#45;&gt;AppModule -->
<g id="edge4" class="edge">
<title>AppComponent&#45;&gt;AppModule</title>
<path fill="none" stroke="black" d="M4257,-122.17C4257,-141.09 4257,-168 4257,-168 4257,-168 2860.77,-168 2860.77,-168"/>
<polygon fill="black" stroke="black" points="2860.77,-164.5 2850.77,-168 2860.77,-171.5 2860.77,-164.5"/>
</g>
<!-- CarAssigmentPageComponent -->
<g id="node5" class="node">
<title>CarAssigmentPageComponent</title>
<polygon fill="#ffffb3" stroke="black" points="4186.14,-122 3997.86,-122 3997.86,-86 4186.14,-86 4186.14,-122"/>
<text text-anchor="middle" x="4092" y="-99.8" font-family="Times,serif" font-size="14.00">CarAssigmentPageComponent</text>
</g>
<!-- CarAssigmentPageComponent&#45;&gt;AppModule -->
<g id="edge5" class="edge">
<title>CarAssigmentPageComponent&#45;&gt;AppModule</title>
<path fill="none" stroke="black" d="M4092,-122.27C4092,-140.56 4092,-166 4092,-166 4092,-166 2860.96,-166 2860.96,-166"/>
<polygon fill="black" stroke="black" points="2860.96,-162.5 2850.96,-166 2860.96,-169.5 2860.96,-162.5"/>
</g>
<!-- CarFleetAssigmentComponent -->
<g id="node6" class="node">
<title>CarFleetAssigmentComponent</title>
<polygon fill="#ffffb3" stroke="black" points="3979.92,-122 3790.08,-122 3790.08,-86 3979.92,-86 3979.92,-122"/>
<text text-anchor="middle" x="3885" y="-99.8" font-family="Times,serif" font-size="14.00">CarFleetAssigmentComponent</text>
</g>
<!-- CarFleetAssigmentComponent&#45;&gt;AppModule -->
<g id="edge6" class="edge">
<title>CarFleetAssigmentComponent&#45;&gt;AppModule</title>
<path fill="none" stroke="black" d="M3885,-122.02C3885,-139.37 3885,-163 3885,-163 3885,-163 2860.85,-163 2860.85,-163"/>
<polygon fill="black" stroke="black" points="2860.85,-159.5 2850.85,-163 2860.85,-166.5 2860.85,-159.5"/>
</g>
<!-- CarOverviewComponent -->
<g id="node7" class="node">
<title>CarOverviewComponent</title>
<polygon fill="#ffffb3" stroke="black" points="3772.24,-122 3615.76,-122 3615.76,-86 3772.24,-86 3772.24,-122"/>
<text text-anchor="middle" x="3694" y="-99.8" font-family="Times,serif" font-size="14.00">CarOverviewComponent</text>
</g>
<!-- CarOverviewComponent&#45;&gt;AppModule -->
<g id="edge7" class="edge">
<title>CarOverviewComponent&#45;&gt;AppModule</title>
<path fill="none" stroke="black" d="M3694,-122.04C3694,-138.73 3694,-161 3694,-161 3694,-161 2860.79,-161 2860.79,-161"/>
<polygon fill="black" stroke="black" points="2860.79,-157.5 2850.79,-161 2860.79,-164.5 2860.79,-157.5"/>
</g>
<!-- CarReportingPageComponent -->
<g id="node8" class="node">
<title>CarReportingPageComponent</title>
<polygon fill="#ffffb3" stroke="black" points="3597.25,-122 3412.75,-122 3412.75,-86 3597.25,-86 3597.25,-122"/>
<text text-anchor="middle" x="3505" y="-99.8" font-family="Times,serif" font-size="14.00">CarReportingPageComponent</text>
</g>
<!-- CarReportingPageComponent&#45;&gt;AppModule -->
<g id="edge8" class="edge">
<title>CarReportingPageComponent&#45;&gt;AppModule</title>
<path fill="none" stroke="black" d="M3505,-122.01C3505,-138.05 3505,-159 3505,-159 3505,-159 2860.71,-159 2860.71,-159"/>
<polygon fill="black" stroke="black" points="2860.71,-155.5 2850.71,-159 2860.71,-162.5 2860.71,-155.5"/>
</g>
<!-- FieldCreationComponent -->
<g id="node9" class="node">
<title>FieldCreationComponent</title>
<polygon fill="#ffffb3" stroke="black" points="3394.32,-122 3235.68,-122 3235.68,-86 3394.32,-86 3394.32,-122"/>
<text text-anchor="middle" x="3315" y="-99.8" font-family="Times,serif" font-size="14.00">FieldCreationComponent</text>
</g>
<!-- FieldCreationComponent&#45;&gt;AppModule -->
<g id="edge9" class="edge">
<title>FieldCreationComponent&#45;&gt;AppModule</title>
<path fill="none" stroke="black" d="M3315,-122.19C3315,-137.18 3315,-156 3315,-156 3315,-156 2860.84,-156 2860.84,-156"/>
<polygon fill="black" stroke="black" points="2860.84,-152.5 2850.84,-156 2860.84,-159.5 2860.84,-152.5"/>
</g>
<!-- FieldOverviewComponent -->
<g id="node10" class="node">
<title>FieldOverviewComponent</title>
<polygon fill="#ffffb3" stroke="black" points="3217.8,-122 3052.2,-122 3052.2,-86 3217.8,-86 3217.8,-122"/>
<text text-anchor="middle" x="3135" y="-99.8" font-family="Times,serif" font-size="14.00">FieldOverviewComponent</text>
</g>
<!-- FieldOverviewComponent&#45;&gt;AppModule -->
<g id="edge10" class="edge">
<title>FieldOverviewComponent&#45;&gt;AppModule</title>
<path fill="none" stroke="black" d="M3135,-122.05C3135,-136.37 3135,-154 3135,-154 3135,-154 2860.95,-154 2860.95,-154"/>
<polygon fill="black" stroke="black" points="2860.95,-150.5 2850.95,-154 2860.95,-157.5 2860.95,-150.5"/>
</g>
<!-- FleetManagementCreateComponent -->
<g id="node11" class="node">
<title>FleetManagementCreateComponent</title>
<polygon fill="#ffffb3" stroke="black" points="3034.44,-122 2815.56,-122 2815.56,-86 3034.44,-86 3034.44,-122"/>
<text text-anchor="middle" x="2925" y="-99.8" font-family="Times,serif" font-size="14.00">FleetManagementCreateComponent</text>
</g>
<!-- FleetManagementCreateComponent&#45;&gt;AppModule -->
<g id="edge11" class="edge">
<title>FleetManagementCreateComponent&#45;&gt;AppModule</title>
<path fill="none" stroke="black" d="M2833.18,-122.11C2833.18,-122.11 2833.18,-140.99 2833.18,-140.99"/>
<polygon fill="black" stroke="black" points="2829.68,-140.99 2833.18,-150.99 2836.68,-140.99 2829.68,-140.99"/>
</g>
<!-- FleetManagementPageComponent -->
<g id="node12" class="node">
<title>FleetManagementPageComponent</title>
<polygon fill="#ffffb3" stroke="black" points="2797.62,-122 2588.38,-122 2588.38,-86 2797.62,-86 2797.62,-122"/>
<text text-anchor="middle" x="2693" y="-99.8" font-family="Times,serif" font-size="14.00">FleetManagementPageComponent</text>
</g>
<!-- FleetManagementPageComponent&#45;&gt;AppModule -->
<g id="edge12" class="edge">
<title>FleetManagementPageComponent&#45;&gt;AppModule</title>
<path fill="none" stroke="black" d="M2782.49,-122.11C2782.49,-122.11 2782.49,-140.99 2782.49,-140.99"/>
<polygon fill="black" stroke="black" points="2778.99,-140.99 2782.49,-150.99 2785.99,-140.99 2778.99,-140.99"/>
</g>
<!-- FleetOverviewComponent -->
<g id="node13" class="node">
<title>FleetOverviewComponent</title>
<polygon fill="#ffffb3" stroke="black" points="2570.02,-122 2405.98,-122 2405.98,-86 2570.02,-86 2570.02,-122"/>
<text text-anchor="middle" x="2488" y="-99.8" font-family="Times,serif" font-size="14.00">FleetOverviewComponent</text>
</g>
<!-- FleetOverviewComponent&#45;&gt;AppModule -->
<g id="edge13" class="edge">
<title>FleetOverviewComponent&#45;&gt;AppModule</title>
<path fill="none" stroke="black" d="M2488,-122.05C2488,-136.37 2488,-154 2488,-154 2488,-154 2757.03,-154 2757.03,-154"/>
<polygon fill="black" stroke="black" points="2757.03,-157.5 2767.03,-154 2757.03,-150.5 2757.03,-157.5"/>
</g>
<!-- FleetViewPageComponent -->
<g id="node14" class="node">
<title>FleetViewPageComponent</title>
<polygon fill="#ffffb3" stroke="black" points="2387.36,-122 2220.64,-122 2220.64,-86 2387.36,-86 2387.36,-122"/>
<text text-anchor="middle" x="2304" y="-99.8" font-family="Times,serif" font-size="14.00">FleetViewPageComponent</text>
</g>
<!-- FleetViewPageComponent&#45;&gt;AppModule -->
<g id="edge14" class="edge">
<title>FleetViewPageComponent&#45;&gt;AppModule</title>
<path fill="none" stroke="black" d="M2304,-122.19C2304,-137.18 2304,-156 2304,-156 2304,-156 2757.24,-156 2757.24,-156"/>
<polygon fill="black" stroke="black" points="2757.24,-159.5 2767.24,-156 2757.24,-152.5 2757.24,-159.5"/>
</g>
<!-- LoginPageComponent -->
<g id="node15" class="node">
<title>LoginPageComponent</title>
<polygon fill="#ffffb3" stroke="black" points="2202.99,-122 2061.01,-122 2061.01,-86 2202.99,-86 2202.99,-122"/>
<text text-anchor="middle" x="2132" y="-99.8" font-family="Times,serif" font-size="14.00">LoginPageComponent</text>
</g>
<!-- LoginPageComponent&#45;&gt;AppModule -->
<g id="edge15" class="edge">
<title>LoginPageComponent&#45;&gt;AppModule</title>
<path fill="none" stroke="black" d="M2132,-122.01C2132,-138.05 2132,-159 2132,-159 2132,-159 2757.16,-159 2757.16,-159"/>
<polygon fill="black" stroke="black" points="2757.16,-162.5 2767.16,-159 2757.16,-155.5 2757.16,-162.5"/>
</g>
<!-- MessageDialogComponent -->
<g id="node16" class="node">
<title>MessageDialogComponent</title>
<polygon fill="#ffffb3" stroke="black" points="2043.41,-122 1874.59,-122 1874.59,-86 2043.41,-86 2043.41,-122"/>
<text text-anchor="middle" x="1959" y="-99.8" font-family="Times,serif" font-size="14.00">MessageDialogComponent</text>
</g>
<!-- MessageDialogComponent&#45;&gt;AppModule -->
<g id="edge16" class="edge">
<title>MessageDialogComponent&#45;&gt;AppModule</title>
<path fill="none" stroke="black" d="M1959,-122.04C1959,-138.73 1959,-161 1959,-161 1959,-161 2757.14,-161 2757.14,-161"/>
<polygon fill="black" stroke="black" points="2757.14,-164.5 2767.14,-161 2757.14,-157.5 2757.14,-164.5"/>
</g>
<!-- ReportComponent -->
<g id="node17" class="node">
<title>ReportComponent</title>
<polygon fill="#ffffb3" stroke="black" points="1856.94,-122 1737.06,-122 1737.06,-86 1856.94,-86 1856.94,-122"/>
<text text-anchor="middle" x="1797" y="-99.8" font-family="Times,serif" font-size="14.00">ReportComponent</text>
</g>
<!-- ReportComponent&#45;&gt;AppModule -->
<g id="edge17" class="edge">
<title>ReportComponent&#45;&gt;AppModule</title>
<path fill="none" stroke="black" d="M1797,-122.02C1797,-139.37 1797,-163 1797,-163 1797,-163 2757.12,-163 2757.12,-163"/>
<polygon fill="black" stroke="black" points="2757.12,-166.5 2767.12,-163 2757.12,-159.5 2757.12,-166.5"/>
</g>
<!-- SchemaCarAssigmentComponent -->
<g id="node18" class="node">
<title>SchemaCarAssigmentComponent</title>
<polygon fill="#ffffb3" stroke="black" points="1718.74,-122 1513.26,-122 1513.26,-86 1718.74,-86 1718.74,-122"/>
<text text-anchor="middle" x="1616" y="-99.8" font-family="Times,serif" font-size="14.00">SchemaCarAssigmentComponent</text>
</g>
<!-- SchemaCarAssigmentComponent&#45;&gt;AppModule -->
<g id="edge18" class="edge">
<title>SchemaCarAssigmentComponent&#45;&gt;AppModule</title>
<path fill="none" stroke="black" d="M1616,-122.27C1616,-140.56 1616,-166 1616,-166 1616,-166 2757.24,-166 2757.24,-166"/>
<polygon fill="black" stroke="black" points="2757.24,-169.5 2767.24,-166 2757.24,-162.5 2757.24,-169.5"/>
</g>
<!-- SchemaCreateComponent -->
<g id="node19" class="node">
<title>SchemaCreateComponent</title>
<polygon fill="#ffffb3" stroke="black" points="1495.18,-122 1332.82,-122 1332.82,-86 1495.18,-86 1495.18,-122"/>
<text text-anchor="middle" x="1414" y="-99.8" font-family="Times,serif" font-size="14.00">SchemaCreateComponent</text>
</g>
<!-- SchemaCreateComponent&#45;&gt;AppModule -->
<g id="edge19" class="edge">
<title>SchemaCreateComponent&#45;&gt;AppModule</title>
<path fill="none" stroke="black" d="M1414,-122.17C1414,-141.09 1414,-168 1414,-168 1414,-168 2757.25,-168 2757.25,-168"/>
<polygon fill="black" stroke="black" points="2757.25,-171.5 2767.25,-168 2757.25,-164.5 2757.25,-171.5"/>
</g>
<!-- SchemaManagementPageComponent -->
<g id="node20" class="node">
<title>SchemaManagementPageComponent</title>
<polygon fill="#ffffb3" stroke="black" points="1314.95,-122 1089.05,-122 1089.05,-86 1314.95,-86 1314.95,-122"/>
<text text-anchor="middle" x="1202" y="-99.8" font-family="Times,serif" font-size="14.00">SchemaManagementPageComponent</text>
</g>
<!-- SchemaManagementPageComponent&#45;&gt;AppModule -->
<g id="edge20" class="edge">
<title>SchemaManagementPageComponent&#45;&gt;AppModule</title>
<path fill="none" stroke="black" d="M1202,-122.31C1202,-142.15 1202,-171 1202,-171 1202,-171 2757.25,-171 2757.25,-171"/>
<polygon fill="black" stroke="black" points="2757.25,-174.5 2767.25,-171 2757.25,-167.5 2757.25,-174.5"/>
</g>
<!-- SchemaOverviewComponent -->
<g id="node21" class="node">
<title>SchemaOverviewComponent</title>
<polygon fill="#ffffb3" stroke="black" points="1071.34,-122 890.66,-122 890.66,-86 1071.34,-86 1071.34,-122"/>
<text text-anchor="middle" x="981" y="-99.8" font-family="Times,serif" font-size="14.00">SchemaOverviewComponent</text>
</g>
<!-- SchemaOverviewComponent&#45;&gt;AppModule -->
<g id="edge21" class="edge">
<title>SchemaOverviewComponent&#45;&gt;AppModule</title>
<path fill="none" stroke="black" d="M981,-122.13C981,-142.57 981,-173 981,-173 981,-173 2756.95,-173 2756.95,-173"/>
<polygon fill="black" stroke="black" points="2756.95,-176.5 2766.95,-173 2756.95,-169.5 2756.95,-176.5"/>
</g>
<!-- SidebarComponent -->
<g id="node22" class="node">
<title>SidebarComponent</title>
<polygon fill="#ffffb3" stroke="black" points="873.1,-122 748.9,-122 748.9,-86 873.1,-86 873.1,-122"/>
<text text-anchor="middle" x="811" y="-99.8" font-family="Times,serif" font-size="14.00">SidebarComponent</text>
</g>
<!-- SidebarComponent&#45;&gt;AppModule -->
<g id="edge22" class="edge">
<title>SidebarComponent&#45;&gt;AppModule</title>
<path fill="none" stroke="black" d="M811,-122.28C811,-143.32 811,-175 811,-175 811,-175 2757.27,-175 2757.27,-175"/>
<polygon fill="black" stroke="black" points="2757.27,-178.5 2767.27,-175 2757.27,-171.5 2757.27,-178.5"/>
</g>
<!-- UserCreateComponent -->
<g id="node23" class="node">
<title>UserCreateComponent</title>
<polygon fill="#ffffb3" stroke="black" points="731.29,-122 586.71,-122 586.71,-86 731.29,-86 731.29,-122"/>
<text text-anchor="middle" x="659" y="-99.8" font-family="Times,serif" font-size="14.00">UserCreateComponent</text>
</g>
<!-- UserCreateComponent&#45;&gt;AppModule -->
<g id="edge23" class="edge">
<title>UserCreateComponent&#45;&gt;AppModule</title>
<path fill="none" stroke="black" d="M659,-122.29C659,-144.21 659,-178 659,-178 659,-178 2757.02,-178 2757.02,-178"/>
<polygon fill="black" stroke="black" points="2757.02,-181.5 2767.02,-178 2757.02,-174.5 2757.02,-181.5"/>
</g>
<!-- UserCreationPageComponent -->
<g id="node24" class="node">
<title>UserCreationPageComponent</title>
<polygon fill="#ffffb3" stroke="black" points="568.68,-122 385.32,-122 385.32,-86 568.68,-86 568.68,-122"/>
<text text-anchor="middle" x="477" y="-99.8" font-family="Times,serif" font-size="14.00">UserCreationPageComponent</text>
</g>
<!-- UserCreationPageComponent&#45;&gt;AppModule -->
<g id="edge24" class="edge">
<title>UserCreationPageComponent&#45;&gt;AppModule</title>
<path fill="none" stroke="black" d="M477,-122.01C477,-144.49 477,-180 477,-180 477,-180 2757.03,-180 2757.03,-180"/>
<polygon fill="black" stroke="black" points="2757.03,-183.5 2767.03,-180 2757.03,-176.5 2757.03,-183.5"/>
</g>
<!-- UserOverviewComponent -->
<g id="node25" class="node">
<title>UserOverviewComponent</title>
<polygon fill="#ffffb3" stroke="black" points="367.45,-122 204.55,-122 204.55,-86 367.45,-86 367.45,-122"/>
<text text-anchor="middle" x="286" y="-99.8" font-family="Times,serif" font-size="14.00">UserOverviewComponent</text>
</g>
<!-- UserOverviewComponent&#45;&gt;AppModule -->
<g id="edge25" class="edge">
<title>UserOverviewComponent&#45;&gt;AppModule</title>
<path fill="none" stroke="black" d="M286,-122.32C286,-145.66 286,-183 286,-183 286,-183 2757.31,-183 2757.31,-183"/>
<polygon fill="black" stroke="black" points="2757.31,-186.5 2767.31,-183 2757.31,-179.5 2757.31,-186.5"/>
</g>
<!-- WelcomePageComponent -->
<g id="node26" class="node">
<title>WelcomePageComponent</title>
<polygon fill="#ffffb3" stroke="black" points="186.18,-122 23.82,-122 23.82,-86 186.18,-86 186.18,-122"/>
<text text-anchor="middle" x="105" y="-99.8" font-family="Times,serif" font-size="14.00">WelcomePageComponent</text>
</g>
<!-- WelcomePageComponent&#45;&gt;AppModule -->
<g id="edge26" class="edge">
<title>WelcomePageComponent&#45;&gt;AppModule</title>
<path fill="none" stroke="black" d="M105,-122.38C105,-146.28 105,-185 105,-185 105,-185 2757.34,-185 2757.34,-185"/>
<polygon fill="black" stroke="black" points="2757.34,-188.5 2767.34,-185 2757.34,-181.5 2757.34,-188.5"/>
</g>
<!-- AppComponent  -->
<g id="node30" class="node">
<title>AppComponent </title>
<polygon fill="#80b1d3" stroke="black" points="2863.44,-252 2754.56,-252 2754.56,-216 2863.44,-216 2863.44,-252"/>
<text text-anchor="middle" x="2809" y="-229.8" font-family="Times,serif" font-size="14.00">AppComponent </text>
</g>
<!-- AppModule&#45;&gt;AppComponent  -->
<g id="edge29" class="edge">
<title>AppModule&#45;&gt;AppComponent </title>
<path fill="none" stroke="black" stroke-dasharray="1,5" d="M2809,-187.11C2809,-187.11 2809,-205.99 2809,-205.99"/>
<polygon fill="black" stroke="black" points="2805.5,-205.99 2809,-215.99 2812.5,-205.99 2805.5,-205.99"/>
</g>
<!-- AppRoutingModule -->
<g id="node28" class="node">
<title>AppRoutingModule</title>
<polygon fill="#8dd3c7" stroke="black" points="5488.27,-122 5485.27,-126 5464.27,-126 5461.27,-122 5359.73,-122 5359.73,-86 5488.27,-86 5488.27,-122"/>
<text text-anchor="middle" x="5424" y="-99.8" font-family="Times,serif" font-size="14.00">AppRoutingModule</text>
</g>
<!-- AppRoutingModule&#45;&gt;AppModule -->
<g id="edge27" class="edge">
<title>AppRoutingModule&#45;&gt;AppModule</title>
<path fill="none" stroke="black" d="M5424,-122.38C5424,-146.28 5424,-185 5424,-185 5424,-185 2860.87,-185 2860.87,-185"/>
<polygon fill="black" stroke="black" points="2860.87,-181.5 2850.87,-185 2860.87,-188.5 2860.87,-181.5"/>
</g>
<!-- MaterialModule -->
<g id="node29" class="node">
<title>MaterialModule</title>
<polygon fill="#8dd3c7" stroke="black" points="5341.47,-122 5338.47,-126 5317.47,-126 5314.47,-122 5234.53,-122 5234.53,-86 5341.47,-86 5341.47,-122"/>
<text text-anchor="middle" x="5288" y="-99.8" font-family="Times,serif" font-size="14.00">MaterialModule</text>
</g>
<!-- MaterialModule&#45;&gt;AppModule -->
<g id="edge28" class="edge">
<title>MaterialModule&#45;&gt;AppModule</title>
<path fill="none" stroke="black" d="M5288,-122.32C5288,-145.66 5288,-183 5288,-183 5288,-183 2860.73,-183 2860.73,-183"/>
<polygon fill="black" stroke="black" points="2860.73,-179.5 2850.73,-183 2860.73,-186.5 2860.73,-179.5"/>
</g>
<!-- AuthInterceptor -->
<g id="node31" class="node">
<title>AuthInterceptor</title>
<ellipse fill="#fdb462" stroke="black" cx="5138" cy="-104" rx="72.91" ry="18"/>
<text text-anchor="middle" x="5138" y="-99.8" font-family="Times,serif" font-size="14.00">AuthInterceptor</text>
</g>
<!-- AuthInterceptor&#45;&gt;AppModule -->
<g id="edge30" class="edge">
<title>AuthInterceptor&#45;&gt;AppModule</title>
<path fill="none" stroke="black" d="M5138,-122.01C5138,-144.49 5138,-180 5138,-180 5138,-180 2860.91,-180 2860.91,-180"/>
<polygon fill="black" stroke="black" points="2860.91,-176.5 2850.91,-180 2860.91,-183.5 2860.91,-176.5"/>
</g>
<!-- LoadingInterceptor -->
<g id="node32" class="node">
<title>LoadingInterceptor</title>
<ellipse fill="#fdb462" stroke="black" cx="4962" cy="-104" rx="85.66" ry="18"/>
<text text-anchor="middle" x="4962" y="-99.8" font-family="Times,serif" font-size="14.00">LoadingInterceptor</text>
</g>
<!-- LoadingInterceptor&#45;&gt;AppModule -->
<g id="edge31" class="edge">
<title>LoadingInterceptor&#45;&gt;AppModule</title>
<path fill="none" stroke="black" d="M4962,-122.29C4962,-144.21 4962,-178 4962,-178 4962,-178 2861.04,-178 2861.04,-178"/>
<polygon fill="black" stroke="black" points="2861.04,-174.5 2851.04,-178 2861.04,-181.5 2861.04,-174.5"/>
</g>
</g>
</svg>
